{"title":"Killing Bono *2011* [DVDRip.XviD-miguel] [ENG]","uid":6378635,"size":737884988,"categoryP":"video","categoryS":"movies","magnet":"?xt=urn:btih:0cc64d13f66aeb47746596af5f71257fac876330&amp;dn=Killing+Bono+%2A2011%2A+%5BDVDRip.XviD-miguel%5D+%5BENG%5D&amp;tr=udp%3A%2F%2Ftracker.openbittorrent.com%3A80&amp;tr=udp%3A%2F%2Fopen.demonii.com%3A1337&amp;tr=udp%3A%2F%2Ftracker.coppersurfer.tk%3A6969&amp;tr=udp%3A%2F%2Fexodus.desync.com%3A6969","seeders":1,"leechers":1,"uploader":"miguel1983","files":-1,"time":1304949248,"description":" &lt;a href=&quot;http://img59.imageshack.us/img59/3462/killingbono.jpg&quot; rel=&quot;nofollow&quot; target=&quot;_NEW&quot;&gt;http://img59.imageshack.us/img59/3462/killingbono.jpg&lt;/a&gt;\n\nCountry.......: United Kingdom\nGenre.........: Comedy\nDate release..: 01.04.2011 [World]\nDirector......: Nick Hamm\nWriters.......: Dick Clement, Ian La Frenais\nDuration......: 109 min.\nMore..........: http://www.imdb.com/title/tt1535101\nTrailer.......: http://www.imdb.com/video/imdb/vi2173736985\nTrailer.......:\n\nPilot :\nTwo brothers attempt to become global rock stars but can only look on as old school friends U2 become the biggest band in the world. \n\nCats :\nBen Barnes   \t ...  \tNeil McCormick\nRobert Sheehan \t... \tIvan McCormick\nKrysten Ritter \t... \tGloria\nPete Postlethwaite \t... \tKarl\nJustine Waddell \t... \tDanielle\nPeter Serafinowicz \t... \tHammond\nRalph Brown \t... \tLeo\nLuke Treadaway \t... \tNick\nMartin McCann \t... \tBono\nHugh O Conor \t... \tGary\nLisa McAllister \t... \tErika\nDiarmuid Noyes \t... \tPlugger\nStanley Townsend \t... \tDanny Machin\nJason Byrne \t... \tHotel Receptionist\nSam Corry \t... \tPaul McGuinness \n\nData Technical :\n!!! SAMPLE !!!\nAudio.....: English\nSubtitles.: None\nFormat                           : AVI\nFormat/Info                      : Audio Video Interleave\nFile size                        : 701 MiB\nDuration                         : 1h 48mn\nOverall bit rate                 : 900 Kbps\nWriting application              : AbSurDiTys HypeR XviD\nWriting library                  : VirtualDub build 33848/release\nCopyright                        : By AbSurdiTy\nVideo\nID                               : 0\nFormat                           : MPEG-4 Visual\nFormat profile                   : Advanced Simple@L5\nFormat settings, BVOP            : Yes\nFormat settings, QPel            : No\nFormat settings, GMC             : No warppoints\nFormat settings, Matrix          : Custom\nCodec ID                         : XVID\nCodec ID/Hint                    : XviD\nDuration                         : 1h 48mn\nBit rate                         : 762 Kbps\nWidth                            : 640 pixels\nHeight                           : 272 pixels\nDisplay aspect ratio             : 2.35:1\nFrame rate                       : 25.000 fps\nColor space                      : YUV\nChroma subsampling               : 4:2:0\nBit depth                        : 8 bits\nScan type                        : Progressive\nBits/(Pixel*Frame)               : 0.175\nStream size                      : 594 MiB (85%)\nWriting library                  : XviD 58\nAudio\nID                               : 1\nFormat                           : MPEG Audio\nFormat version                   : Version 1\nFormat profile                   : Layer 3\nMode                             : Joint stereo\nMode extension                   : MS Stereo\nCodec ID                         : 55\nCodec ID/Hint                    : MP3\nDuration                         : 1h 48mn\nBit rate mode                    : Constant\nBit rate                         : 128 Kbps\nChannel(s)                       : 2 channels\nSampling rate                    : 48.0 KHz\nStream size                      : 99.7 MiB (14%)\nAlignment                        : Split accross interleaves\nInterleave, duration             : 40 ms (1.00 video frame)\nInterleave, preload duration     : 500 ms\n\nScreen : &lt;a href=&quot;\nhttp://img641.imageshack.us/img641/5254/killingbono2011s1.jpg&quot; rel=&quot;nofollow&quot; target=&quot;_NEW&quot;&gt;\nhttp://img641.imageshack.us/img641/5254/killingbono2011s1.jpg&lt;/a&gt; &lt;a href=&quot;\nhttp://img820.imageshack.us/img820/2232/killingbono2011s2.jpg&quot; rel=&quot;nofollow&quot; target=&quot;_NEW&quot;&gt;\nhttp://img820.imageshack.us/img820/2232/killingbono2011s2.jpg&lt;/a&gt; &lt;a href=&quot;\nhttp://img146.imageshack.us/img146/5821/killingbono2011s3.jpg&quot; rel=&quot;nofollow&quot; target=&quot;_NEW&quot;&gt;\nhttp://img146.imageshack.us/img146/5821/killingbono2011s3.jpg&lt;/a&gt; &lt;a href=&quot;\nhttp://img862.imageshack.us/img862/8273/killingbono2011s4.jpg&quot; rel=&quot;nofollow&quot; target=&quot;_NEW&quot;&gt;\nhttp://img862.imageshack.us/img862/8273/killingbono2011s4.jpg&lt;/a&gt; &lt;a href=&quot;\nhttp://img18.imageshack.us/img18/57/killingbono2011s5.jpg&quot; rel=&quot;nofollow&quot; target=&quot;_NEW&quot;&gt;\nhttp://img18.imageshack.us/img18/57/killingbono2011s5.jpg&lt;/a&gt;","torrent":{"xt":"urn:btih:0cc64d13f66aeb47746596af5f71257fac876330","amp;dn":"Killing+Bono+%2A2011%2A+%5BDVDRip.XviD-miguel%5D+%5BENG%5D","amp;tr":["udp%3A%2F%2Ftracker.openbittorrent.com%3A80","udp%3A%2F%2Fopen.demonii.com%3A1337","udp%3A%2F%2Ftracker.coppersurfer.tk%3A6969","udp%3A%2F%2Fexodus.desync.com%3A6969"],"infoHash":"0cc64d13f66aeb47746596af5f71257fac876330","infoHashBuffer":{"type":"Buffer","data":[12,198,77,19,246,106,235,71,116,101,150,175,95,113,37,127,172,135,99,48]},"announce":[],"urlList":[]}}